<svg xmlns="http://www.w3.org/2000/svg" width="46.226" height="14.54" viewBox="0 0 46.226 14.54">
  <path id="Rosie_Logo" data-name="Rosie Logo" d="M36.655,13.269a4.222,4.222,0,0,1-1.867-.9A3.351,3.351,0,0,1,33.863,11v2.337H29.13V11.8a3.6,3.6,0,0,1-.962.847,5.554,5.554,0,0,1-1.788.672,11.729,11.729,0,0,1-2.406.224A8.18,8.18,0,0,1,19.7,12.7a2.723,2.723,0,0,1-1.039-1.178,3.85,3.85,0,0,1-.3.4A4.283,4.283,0,0,1,16.534,13.1a9.512,9.512,0,0,1-3.194.439,10.782,10.782,0,0,1-3.286-.4A3.913,3.913,0,0,1,8.24,12.018a3.512,3.512,0,0,1-.776-1.681,11.781,11.781,0,0,1-.171-2.064,9.557,9.557,0,0,1,.2-1.942c.021-.1.047-.2.075-.3l-.177,0a4.031,4.031,0,0,0-1.959.392,1.467,1.467,0,0,0-.7,1.4v5.509H0V3.231H4.575V4.837h.053A2.815,2.815,0,0,1,5.889,3.446a3.923,3.923,0,0,1,1.919-.476h.762v1.4a4.729,4.729,0,0,1,1.575-.938,9.147,9.147,0,0,1,3.194-.458,10.329,10.329,0,0,1,3.286.42A4,4,0,0,1,18.44,4.538a3.589,3.589,0,0,1,.28.386c.008-.014.015-.027.023-.041a3.026,3.026,0,0,1,1.038-1,5.829,5.829,0,0,1,1.762-.672,11.425,11.425,0,0,1,2.511-.243q4.159,0,5.077,1.928V3.231h4.732V5.7a3.638,3.638,0,0,1,1.031-1.516,4.531,4.531,0,0,1,1.88-.924,13.017,13.017,0,0,1,5.232-.047,4.444,4.444,0,0,1,1.788.813,3.417,3.417,0,0,1,1.078,1.494,6.488,6.488,0,0,1,.355,2.307V8.852h-7.02v1.326a1.249,1.249,0,0,0,.394,1.093,1.542,1.542,0,0,0,.894.271,1.313,1.313,0,0,0,.986-.364,2.022,2.022,0,0,0,.355-1.391h4.259A3.388,3.388,0,0,1,43.754,12.6a7.317,7.317,0,0,1-4.233.943A12.835,12.835,0,0,1,36.655,13.269ZM19.387,8.292a9.56,9.56,0,0,1-.19,1.9h3.358a1.925,1.925,0,0,0,.079.56.931.931,0,0,0,.263.43,1.324,1.324,0,0,0,1,.355,1.962,1.962,0,0,0,.96-.224.7.7,0,0,0,.407-.635.756.756,0,0,0-.513-.691,6.812,6.812,0,0,0-1.275-.429q-.763-.186-1.643-.392a8.385,8.385,0,0,1-1.643-.56,3.97,3.97,0,0,1-.8-.494C19.386,8.174,19.387,8.233,19.387,8.292ZM12.7,5.267a.957.957,0,0,0-.408.486,3.1,3.1,0,0,0-.21.971q-.053.616-.052,1.569t.052,1.559a3.074,3.074,0,0,0,.21.962.955.955,0,0,0,.408.486,1.386,1.386,0,0,0,.644.131A1.471,1.471,0,0,0,14,11.3a.882.882,0,0,0,.408-.486,3.415,3.415,0,0,0,.2-.962q.052-.607.053-1.559T14.6,6.723a3.442,3.442,0,0,0-.2-.971A.885.885,0,0,0,14,5.267a1.474,1.474,0,0,0-.657-.131A1.388,1.388,0,0,0,12.7,5.267ZM23.16,5.229a.642.642,0,0,0-.342.579.7.7,0,0,0,.513.644,7.567,7.567,0,0,0,1.275.383q.762.168,1.643.355a8,8,0,0,1,1.643.532,3.692,3.692,0,0,1,1.238.894V6.144H25.289a1.023,1.023,0,0,0-.329-.887,1.6,1.6,0,0,0-.933-.234A1.662,1.662,0,0,0,23.16,5.229ZM38.482,5.4a2,2,0,0,0-.276,1.177v.448h2.6V6.574A2,2,0,0,0,40.533,5.4a1.221,1.221,0,0,0-1.039-.374A1.186,1.186,0,0,0,38.482,5.4ZM29.131,2.5V0h4.732V2.5Z" transform="translate(0.5 0.5)" fill="#fff" stroke="rgba(0,0,0,0)" stroke-width="1"/>
</svg>
